<?xml version="1.0" standalone="no"?>
<!DOCTYPE svg PUBLIC "-//W3C//DTD SVG 20010904//EN"
 "http://www.w3.org/TR/2001/REC-SVG-20010904/DTD/svg10.dtd">
<svg version="1.0" xmlns="http://www.w3.org/2000/svg"
 width="482.000000pt" height="387.000000pt" viewBox="0 0 482.000000 387.000000"
 preserveAspectRatio="xMidYMid meet">

<g transform="translate(0.000000,387.000000) scale(0.100000,-0.100000)"
fill="#000000" stroke="none">
<path d="M2417 3582 c-38 -42 -65 -159 -34 -150 18 6 67 107 67 140 0 32 -10
35 -33 10z"/>
<path d="M2260 3539 c0 -28 17 -58 55 -99 19 -19 35 -48 38 -65 l4 -30 2 31
c1 41 -23 109 -55 151 -29 38 -44 42 -44 12z"/>
<path d="M2600 3463 c-37 -42 -55 -80 -65 -140 -8 -53 3 -55 47 -7 35 38 67
112 68 157 0 36 -12 34 -50 -10z"/>
<path d="M2067 3483 c-11 -11 -8 -47 9 -95 17 -52 80 -131 96 -122 26 16 -17
149 -65 202 -22 23 -29 26 -40 15z"/>
<path d="M2821 3446 c-25 -30 -17 -161 15 -260 24 -77 29 -85 37 -65 5 13 7
78 5 144 -3 95 -8 128 -24 158 -18 34 -22 37 -33 23z"/>
<path d="M3053 3428 c-44 -47 -64 -93 -71 -161 l-5 -59 27 17 c32 21 71 85 84
140 22 90 23 95 9 95 -7 0 -27 -15 -44 -32z"/>
<path d="M2440 3418 c-12 -12 -33 -45 -46 -73 -13 -27 -24 -41 -24 -31 0 11
-2 17 -5 14 -10 -10 16 -137 30 -148 31 -26 84 92 85 185 0 69 -11 84 -40 53z"/>
<path d="M1850 3387 c-12 -26 -24 -78 -27 -116 -6 -74 4 -181 16 -181 5 0 19
37 32 83 26 89 32 208 12 242 -11 18 -13 16 -33 -28z"/>
<path d="M1603 3371 c7 -60 28 -104 70 -148 30 -32 57 -43 57 -23 0 23 -24
117 -35 140 -18 35 -65 80 -83 80 -12 0 -14 -10 -9 -49z"/>
<path d="M2240 3380 c0 -51 31 -117 75 -160 44 -43 45 -27 5 76 -30 75 -58
123 -72 124 -5 0 -8 -18 -8 -40z"/>
<path d="M2927 3235 c-5 -70 -13 -98 -46 -170 -54 -114 -51 -122 4 -15 24 47
46 103 49 125 14 107 16 145 8 145 -5 0 -12 -38 -15 -85z"/>
<path d="M1764 3230 c2 -67 8 -98 31 -150 16 -36 36 -73 45 -83 9 -10 2 13
-16 51 -23 48 -38 101 -48 168 l-15 99 3 -85z"/>
<path d="M2483 3213 c-34 -35 -45 -83 -19 -83 19 0 86 76 86 98 0 30 -32 22
-67 -15z"/>
<path d="M2195 3229 c-4 -6 -13 -8 -21 -5 -19 7 -19 9 27 -75 37 -68 122 -169
141 -169 13 0 -3 100 -23 146 -34 80 -103 138 -124 103z"/>
<path d="M2708 3191 c-25 -30 -42 -64 -56 -114 -11 -40 -18 -74 -16 -76 11
-12 62 42 87 91 21 41 28 65 25 98 l-3 44 -37 -43z"/>
<path d="M1956 3194 c-3 -11 1 -44 9 -74 11 -42 25 -65 56 -95 52 -48 59 -37
29 55 -25 78 -83 148 -94 114z"/>
<path d="M2575 3179 c-21 -40 -31 -150 -18 -199 l9 -35 18 28 c22 32 35 193
18 222 -9 17 -12 15 -27 -16z"/>
<path d="M3176 3189 c-43 -34 -116 -138 -116 -165 0 -22 4 -24 48 -24 28 0 67
9 97 24 52 24 93 61 82 73 -15 15 -86 2 -139 -26 -59 -30 -70 -21 -18 14 36
24 82 90 78 112 -2 12 -8 11 -32 -8z"/>
<path d="M2102 3176 c-18 -40 -24 -111 -13 -152 10 -37 59 -99 62 -78 5 35 -4
195 -12 222 -12 38 -22 40 -37 8z"/>
<path d="M1500 3153 c1 -31 23 -59 90 -120 36 -32 57 -47 48 -33 -10 14 -25
39 -34 55 -43 78 -104 136 -104 98z"/>
<path d="M2989 3132 c-52 -34 -106 -107 -84 -116 48 -18 137 50 159 122 10 31
-19 29 -75 -6z"/>
<path d="M1600 3132 c0 -5 14 -29 31 -55 33 -50 93 -81 144 -75 l28 3 -34 45
c-19 25 -54 55 -79 68 -44 22 -90 29 -90 14z"/>
<path d="M2399 3107 c-9 -12 -19 -53 -22 -91 -4 -37 -11 -73 -16 -80 -5 -6
-12 -29 -16 -51 l-6 -40 20 44 c12 24 28 67 35 95 14 51 30 146 24 146 -2 0
-10 -11 -19 -23z"/>
<path d="M3553 3078 c-43 -47 -85 -168 -59 -168 17 0 73 71 92 115 28 68 9 99
-33 53z"/>
<path d="M3392 3051 c-13 -37 -14 -145 -3 -226 l6 -50 29 87 c30 91 30 104 -2
179 l-19 43 -11 -33z"/>
<path d="M1416 3051 c-4 -7 6 -24 23 -40 31 -29 96 -51 151 -51 82 0 -23 90
-113 98 -35 3 -57 0 -61 -7z"/>
<path d="M2738 3013 c-27 -62 -29 -159 -4 -230 10 -29 21 -53 26 -53 16 0 29
27 32 67 2 23 6 39 10 37 3 -2 7 32 7 76 0 78 -19 150 -41 150 -5 0 -18 -21
-30 -47z"/>
<path d="M1106 3043 c-12 -12 -6 -54 13 -91 20 -39 97 -119 106 -111 3 3 -1
29 -9 57 -19 76 -88 167 -110 145z"/>
<path d="M1902 3023 c-6 -16 -13 -36 -16 -46 -3 -10 -9 -16 -14 -13 -4 2 -6
-11 -4 -30 5 -37 -4 -42 -34 -19 -45 34 -59 8 -21 -42 76 -103 94 -128 115
-150 39 -43 33 -45 -68 -27 -18 3 -21 2 -10 -5 8 -4 37 -11 64 -15 30 -4 60
-15 75 -29 18 -15 15 -10 -7 16 -36 42 -39 67 -16 122 11 28 14 53 9 97 -4 32
-11 60 -16 63 -4 3 -6 12 -2 20 3 8 0 15 -7 15 -7 0 -10 7 -6 15 6 15 -13 55
-25 55 -4 0 -11 -12 -17 -27z"/>
<path d="M1275 2997 c-22 -54 -19 -149 7 -200 11 -23 25 -53 29 -67 5 -14 7
40 6 127 -2 168 -14 207 -42 140z"/>
<path d="M2195 3021 c-9 -15 44 -126 79 -168 37 -43 61 -44 52 -2 -10 51 -34
93 -80 138 -28 27 -46 39 -51 32z"/>
<path d="M2484 2981 c-48 -22 -79 -68 -88 -131 l-7 -45 64 66 c56 57 100 129
79 129 -4 0 -25 -9 -48 -19z"/>
<path d="M3212 2966 c-41 -47 -60 -114 -64 -228 -4 -97 5 -124 15 -48 3 22 24
77 46 122 41 82 65 188 43 188 -5 0 -23 -15 -40 -34z"/>
<path d="M1395 2918 c-5 -25 -2 -53 9 -84 9 -26 16 -49 16 -51 0 -2 -11 -3
-25 -3 -14 0 -25 -6 -25 -13 0 -17 55 -73 103 -105 20 -13 37 -26 37 -28 0 -1
-16 2 -36 8 -33 9 -78 6 -127 -8 -9 -3 -22 -14 -27 -25 -34 -62 100 -114 194
-75 47 19 50 30 28 79 -29 62 -46 102 -81 197 -17 47 -38 99 -45 115 l-14 30
-7 -37z"/>
<path d="M2868 2927 c-18 -14 -31 -39 -38 -71 -6 -27 -9 -50 -7 -52 2 -3 25
18 50 45 68 72 63 134 -5 78z"/>
<path d="M3005 2925 c-50 -30 -82 -77 -101 -147 -19 -72 -17 -90 6 -47 10 20
30 43 43 51 35 23 99 122 95 147 -3 21 -3 21 -43 -4z"/>
<path d="M1465 2920 c-3 -5 14 -52 40 -105 25 -52 49 -118 53 -147 7 -45 8
-36 10 62 2 129 -8 164 -49 185 -33 18 -46 19 -54 5z"/>
<path d="M2598 2913 c-25 -29 -45 -75 -53 -120 -5 -32 -11 -43 -28 -45 -16 -2
-26 -18 -44 -68 -13 -40 -33 -74 -50 -89 -15 -13 -22 -20 -15 -17 6 4 12 5 12
2 0 -3 -10 -10 -21 -17 -21 -11 -21 -10 -14 37 4 27 16 75 26 108 11 32 18 61
15 64 -10 9 -39 -23 -57 -62 l-17 -39 -5 29 c-2 16 -5 -25 -7 -91 -2 -124 -3
-124 -29 5 -8 35 -25 73 -49 105 l-37 50 -3 -65 c-4 -93 12 -142 67 -195 25
-25 51 -45 57 -45 17 0 82 46 109 78 13 15 37 50 52 79 17 33 38 56 57 65 39
17 65 63 73 126 6 54 -3 122 -16 122 -4 0 -15 -8 -23 -17z"/>
<path d="M3530 2903 c-41 -21 -63 -41 -87 -80 -32 -50 -32 -53 -13 -53 13 0
19 4 14 11 -4 8 1 9 16 4 17 -5 21 -4 15 5 -5 9 -4 11 3 6 6 -4 25 0 41 8 35
19 96 89 81 94 -6 2 -3 10 7 18 34 25 -19 16 -77 -13z"/>
<path d="M1665 2910 c-11 -18 24 -79 81 -142 32 -34 64 -64 71 -64 8 -1 7 0
-2 3 -18 5 -18 8 -5 32 13 26 -22 91 -76 140 -45 42 -58 48 -69 31z"/>
<path d="M2056 2866 c-8 -59 2 -89 51 -153 38 -52 47 -43 39 44 -4 43 -11 80
-15 83 -4 3 -17 22 -30 43 -12 20 -26 37 -31 37 -4 0 -11 -24 -14 -54z"/>
<path d="M1075 2871 c-8 -14 78 -106 118 -124 18 -8 47 -18 65 -22 32 -7 33
-6 22 15 -18 34 -81 100 -109 114 -39 20 -88 29 -96 17z"/>
<path d="M3259 2787 c-37 -32 -70 -77 -82 -110 -6 -16 -5 -16 26 -1 41 21 95
71 114 108 8 15 10 25 4 22 -6 -4 -11 -2 -11 3 0 18 -13 12 -51 -22z"/>
<path d="M3000 2764 c-42 -24 -79 -59 -80 -76 0 -12 75 -10 107 3 33 12 83 57
83 75 0 13 -22 24 -48 24 -9 0 -37 -12 -62 -26z"/>
<path d="M3385 2761 c-3 -5 -1 -12 5 -16 5 -3 10 1 10 9 0 18 -6 21 -15 7z"/>
<path d="M1590 2750 c-12 -8 -10 -14 14 -39 32 -34 80 -53 131 -53 51 0 60 10
33 39 -48 52 -138 79 -178 53z"/>
<path d="M2658 2718 c-29 -57 -71 -205 -53 -187 40 40 107 229 82 229 -4 0
-16 -19 -29 -42z"/>
<path d="M2030 2715 c0 -48 32 -124 71 -169 20 -23 49 -59 65 -82 78 -110 88
-119 127 -122 44 -3 47 9 18 66 -41 79 -82 122 -130 137 -23 7 -24 6 -18 -26
l7 -34 -25 28 c-14 15 -25 38 -25 50 0 24 -48 130 -74 162 -15 19 -15 19 -16
-10z"/>
<path d="M3468 2707 c-51 -16 -84 -45 -69 -60 30 -30 166 -4 200 37 27 32 -55
47 -131 23z"/>
<path d="M2745 2700 c-3 -6 1 -7 9 -4 18 7 21 14 7 14 -6 0 -13 -4 -16 -10z"/>
<path d="M1103 2663 c-23 -9 -13 -29 22 -46 57 -27 175 -19 175 12 0 27 -152
53 -197 34z"/>
<path d="M2810 2654 c-14 -8 -33 -12 -43 -10 -9 2 -15 1 -12 -4 3 -4 -6 -11
-19 -14 -26 -6 -86 -69 -86 -90 0 -15 30 -26 70 -26 60 0 180 83 180 124 0 12
-42 37 -58 35 -4 -1 -18 -7 -32 -15z"/>
<path d="M3013 2635 c-45 -32 -67 -84 -68 -161 0 -79 6 -94 31 -74 46 39 87
176 67 228 -8 20 -10 21 -30 7z"/>
<path d="M1834 2625 c-19 -47 85 -115 178 -115 98 0 90 30 -23 83 -98 47 -146
57 -155 32z"/>
<path d="M3184 2625 c-4 -8 -12 -15 -20 -15 -25 0 -46 -44 -34 -74 19 -52 127
-61 188 -16 48 35 40 45 -33 45 -53 1 -69 5 -87 22 -20 21 -20 22 -2 19 10 -2
13 -1 7 1 -20 7 -15 21 10 26 l22 4 -23 2 c-12 0 -25 -6 -28 -14z"/>
<path d="M3631 2611 c-44 -61 -61 -114 -61 -188 l0 -73 -42 -31 c-24 -17 -70
-44 -103 -60 -33 -16 -53 -29 -45 -29 21 0 107 46 151 81 43 33 46 34 85 14
16 -8 58 -21 92 -30 51 -13 72 -14 121 -4 70 13 132 46 111 59 -7 4 -19 6 -27
3 -7 -3 -13 0 -13 7 0 17 -112 2 -149 -20 -14 -8 -14 -9 -1 -10 13 0 13 -2 0
-9 -8 -6 -26 -8 -40 -6 -80 13 -97 17 -112 29 -17 12 -15 16 17 50 50 53 77
155 59 224 -8 29 -18 28 -43 -7z"/>
<path d="M1594 2586 c-7 -39 9 -97 38 -138 25 -36 5 -38 -45 -4 -20 14 -34 19
-31 13 2 -7 41 -32 85 -57 45 -25 90 -55 100 -69 11 -13 19 -19 19 -13 0 6 8
13 18 15 15 4 14 5 -2 6 -32 2 -76 51 -76 83 0 16 -7 58 -16 94 -13 48 -23 69
-44 84 -37 26 -38 26 -46 -14z"/>
<path d="M1044 2586 c-13 -34 4 -134 31 -183 52 -97 109 -141 293 -230 61 -30
127 -69 146 -86 19 -18 39 -31 45 -29 22 7 -65 65 -175 118 -60 29 -137 73
-169 98 -32 26 -62 46 -66 46 -4 0 -5 24 -2 54 5 46 1 63 -27 125 -18 38 -41
78 -51 87 -17 16 -19 16 -25 0z"/>
<path d="M1760 2575 c-26 -67 12 -207 72 -261 12 -12 54 -45 92 -73 74 -55 73
-58 -14 -64 -39 -2 -30 -4 32 -5 81 -2 89 -4 130 -35 30 -23 43 -41 45 -60 1
-15 10 -38 20 -51 10 -13 31 -40 47 -61 22 -27 32 -53 37 -94 3 -31 10 -68 13
-81 6 -21 4 -20 -13 7 -26 41 -57 61 -123 79 -65 17 -98 18 -98 2 0 -6 3 -8 7
-5 3 4 11 3 17 -2 6 -4 32 -11 59 -14 26 -4 64 -16 86 -26 36 -19 39 -23 45
-78 3 -32 9 -78 12 -103 4 -38 1 -49 -21 -74 -21 -24 -25 -39 -25 -88 0 -68
-31 -141 -78 -180 -27 -22 -42 -26 -146 -31 -64 -4 -160 -4 -214 -1 -88 6
-104 4 -177 -21 -71 -24 -103 -28 -273 -35 -107 -5 -196 -11 -200 -14 -3 -3
458 -6 1025 -6 979 0 1520 7 1508 19 -3 3 -97 8 -208 12 -167 6 -213 11 -267
29 -51 17 -79 20 -130 16 -245 -21 -239 -22 -314 18 -38 20 -77 34 -86 31 -13
-4 -26 8 -48 42 -69 108 -85 189 -53 272 23 62 21 76 -6 35 -14 -22 -18 -48
-18 -124 0 -87 3 -99 28 -142 16 -26 27 -55 24 -65 -3 -12 -11 -2 -26 32 -12
28 -28 57 -35 65 -16 19 -36 98 -36 143 0 20 9 46 22 63 23 29 24 34 17 169
-4 74 14 112 82 176 27 25 49 54 49 65 0 11 13 33 29 48 l29 28 64 -16 c67
-17 370 -23 318 -6 -14 4 -19 8 -12 9 36 3 -12 34 -70 45 -16 3 -40 9 -55 12
l-27 5 19 -22 20 -22 -60 8 c-33 3 -64 10 -68 14 -10 10 85 52 138 62 l40 6
-42 2 c-26 1 -55 -7 -76 -19 -45 -26 -135 -53 -155 -45 -10 4 -42 -21 -97 -75
-46 -44 -100 -87 -121 -96 -22 -9 -48 -23 -58 -32 -18 -16 -19 -16 -12 12 18
73 34 94 88 120 66 31 115 81 120 121 3 30 2 30 -46 30 -58 1 -110 -32 -141
-88 -24 -46 -35 -47 -35 -3 0 32 9 42 105 121 96 79 175 168 162 182 -8 7 -76
-16 -115 -39 -17 -11 -50 -45 -72 -75 -40 -57 -53 -57 -24 -2 8 17 13 33 10
36 -2 3 -16 -18 -30 -46 -15 -28 -30 -51 -35 -51 -10 0 -31 -108 -31 -161 l-1
-34 -15 25 c-11 19 -13 48 -10 125 5 106 1 109 -13 10 l-8 -60 -33 73 c-18 40
-35 71 -37 68 -2 -2 10 -47 27 -101 24 -73 30 -106 25 -136 -4 -21 -10 -39
-14 -39 -4 0 -17 17 -29 38 -24 42 -99 119 -108 110 -14 -15 19 -84 61 -129
43 -46 93 -134 82 -145 -2 -3 -19 18 -36 45 -18 28 -51 66 -74 85 -23 20 -52
45 -63 56 -12 11 -39 33 -61 49 -35 25 -41 35 -46 79 -10 85 -67 179 -129 213
-14 8 -18 6 -18 -8 0 -30 64 -155 104 -202 20 -24 35 -46 32 -48 -5 -5 -165
116 -185 140 -8 11 -8 26 0 63 13 57 3 107 -35 169 l-25 40 -11 -30z m733
-296 c-21 -16 -44 -33 -50 -39 -15 -12 -16 -4 -3 25 5 11 9 14 9 6 1 -7 14 1
31 19 16 17 34 29 40 25 6 -4 -5 -19 -27 -36z"/>
<path d="M3430 2554 c-55 -14 -105 -43 -105 -60 0 -16 78 -16 121 1 47 18 94
51 94 66 0 13 -46 10 -110 -7z"/>
<path d="M2490 2522 c-41 -28 -61 -51 -82 -92 -15 -30 -25 -56 -23 -58 2 -3
24 7 49 22 60 35 116 102 116 138 0 15 -1 28 -2 28 -2 0 -28 -17 -58 -38z"/>
<path d="M1183 2524 c-25 -11 -12 -25 45 -52 48 -22 71 -27 147 -27 74 0 96 4
120 20 17 11 35 18 40 17 6 -2 5 1 -1 8 -14 15 -327 45 -351 34z"/>
<path d="M3753 2495 c-52 -32 -129 -145 -98 -145 18 0 104 53 126 77 31 33 59
74 59 85 0 16 -46 7 -87 -17z"/>
<path d="M900 2459 c0 -26 86 -111 126 -125 45 -16 62 -3 40 30 -20 31 -100
91 -138 105 -25 9 -28 7 -28 -10z"/>
<path d="M2848 2428 c-25 -24 -54 -59 -63 -78 -21 -40 -56 -150 -48 -150 21 0
106 89 126 133 23 48 45 137 34 137 -2 0 -25 -19 -49 -42z"/>
<path d="M3237 2434 c-46 -31 -97 -99 -97 -129 0 -13 -7 -36 -15 -51 -20 -40
-19 -101 3 -129 l18 -23 23 58 c14 36 22 71 19 90 -4 25 -1 33 16 40 38 15
107 92 106 117 0 4 -5 0 -11 -10 -15 -26 -30 -11 -19 19 20 52 12 55 -43 18z
m-27 -108 c0 -3 -13 -14 -30 -26 -16 -12 -30 -17 -30 -11 0 6 12 17 28 25 31
17 32 18 32 12z"/>
<path d="M2008 2426 c-10 -23 -8 -38 10 -95 13 -38 29 -74 37 -81 38 -32 47
38 15 124 -27 72 -45 87 -62 52z"/>
<path d="M2702 2428 c-19 -25 -39 -73 -46 -110 -7 -41 10 -126 23 -112 20 23
61 149 61 189 0 46 -16 60 -38 33z"/>
<path d="M3004 2398 c-49 -52 -74 -91 -74 -115 0 -10 10 2 21 27 11 25 39 64
62 88 22 23 39 42 36 42 -3 0 -23 -19 -45 -42z"/>
<path d="M3069 2401 c-50 -35 -109 -104 -109 -125 0 -14 62 3 108 30 30 18 50
39 63 67 36 80 20 87 -62 28z"/>
<path d="M3463 2389 c-35 -27 -63 -54 -63 -59 0 -5 -14 -25 -31 -45 -22 -25
-27 -35 -16 -35 22 0 177 153 177 173 0 10 -1 17 -2 17 -2 -1 -31 -23 -65 -51z"/>
<path d="M3368 2394 c-8 -22 -18 -57 -22 -79 -6 -37 -5 -39 9 -21 26 34 48
103 38 121 -8 14 -12 11 -25 -21z"/>
<path d="M1510 2402 c0 -25 47 -71 94 -93 44 -20 116 -26 116 -9 0 22 -161
120 -197 120 -7 0 -13 -8 -13 -18z"/>
<path d="M1204 2384 c11 -47 58 -106 116 -146 29 -21 56 -36 58 -33 3 3 -5 23
-17 46 -15 26 -21 49 -17 64 3 13 2 34 -3 47 -9 20 -10 19 -10 -16 l-1 -39
-44 41 c-24 22 -53 45 -66 52 -22 12 -22 11 -16 -16z"/>
<path d="M1370 2361 c0 -10 13 -38 30 -64 23 -37 42 -53 86 -72 70 -31 94 -32
94 -5 0 22 -80 114 -115 133 -11 6 -37 14 -57 17 -32 6 -38 4 -38 -9z"/>
<path d="M2105 2343 c23 -55 58 -97 112 -132 41 -27 49 -30 51 -15 2 9 -4 36
-13 61 -20 51 -102 123 -141 123 -24 0 -24 0 -9 -37z"/>
<path d="M806 2307 c-15 -11 -15 -15 -4 -24 52 -41 175 -44 259 -7 59 27 77
44 25 24 -20 -7 -47 -6 -99 5 -89 18 -157 19 -181 2z"/>
<path d="M1685 2248 c-42 -15 -94 -56 -107 -84 -17 -37 6 -53 83 -60 l64 -6
48 44 c55 50 55 73 1 101 -39 19 -47 20 -89 5z"/>
<path d="M1405 2240 c3 -5 11 -10 16 -10 6 0 7 5 4 10 -3 6 -11 10 -16 10 -6
0 -7 -4 -4 -10z"/>
<path d="M3530 2239 c-13 -6 -35 -7 -47 -4 -18 4 -23 1 -23 -14 0 -23 38 -55
86 -73 41 -15 42 -21 7 -37 -36 -17 -103 -70 -103 -83 0 -15 87 0 130 22 19
10 44 28 55 40 18 20 19 23 3 34 -15 11 -10 15 37 30 30 9 57 21 60 26 3 6 -1
7 -9 4 -9 -4 -16 -1 -16 6 0 9 -4 9 -17 -1 -12 -10 -14 -10 -9 -1 4 7 1 15 -8
18 -9 3 -13 10 -10 15 14 24 -88 37 -136 18z"/>
<path d="M3270 2198 c-30 -11 -59 -25 -65 -30 -5 -5 21 2 59 17 39 14 72 28
75 30 9 10 -15 4 -69 -17z"/>
<path d="M1069 2197 c-46 -13 -109 -51 -109 -67 0 -12 58 -30 98 -30 47 0 115
34 132 65 7 14 11 27 9 29 -13 12 -90 13 -130 3z"/>
<path d="M3300 2142 c-42 -21 -50 -47 -18 -58 44 -13 125 -7 164 13 51 26 53
40 7 52 -56 16 -113 13 -153 -7z"/>
<path d="M1240 2125 c0 -27 28 -57 75 -79 27 -13 41 -14 89 -4 31 7 56 15 56
19 0 15 -82 61 -131 75 -77 20 -89 18 -89 -11z"/>
<path d="M1772 2119 c-60 -22 -2 -48 66 -30 61 17 62 39 2 38 -27 -1 -58 -4
-68 -8z"/>
<path d="M1912 2108 c-23 -23 -14 -75 20 -114 54 -61 129 -100 151 -78 12 12
-33 83 -89 144 -31 33 -60 60 -63 60 -4 0 -12 -5 -19 -12z"/>
<path d="M2000 2105 c0 -3 19 -29 43 -58 23 -29 50 -63 59 -77 l17 -25 0 30
c1 39 -31 90 -71 115 -33 20 -48 25 -48 15z"/>
<path d="M3156 2067 c20 -66 68 -114 137 -137 38 -12 107 -6 107 9 0 4 -43 28
-96 51 -53 24 -109 56 -125 71 -28 26 -30 26 -23 6z"/>
<path d="M1090 2071 c0 -5 12 -23 26 -40 38 -46 164 -77 164 -41 0 15 -72 63
-109 72 -70 17 -81 18 -81 9z"/>
<path d="M3205 2069 c11 -7 69 -32 129 -56 l109 -42 -28 29 c-35 37 -106 67
-175 75 -47 5 -52 4 -35 -6z"/>
<path d="M1720 2050 c15 -27 88 -87 134 -110 23 -10 61 -22 84 -26 l44 -7 -54
50 c-59 56 -101 80 -170 99 -45 11 -47 11 -38 -6z"/>
<path d="M2948 2055 c-45 -17 -130 -72 -183 -120 l-40 -36 75 27 c119 42 196
85 229 127 12 15 11 17 -15 16 -16 0 -46 -6 -66 -14z"/>
<path d="M3741 2058 c-33 -5 -82 -24 -125 -49 l-71 -40 86 3 c75 3 92 7 134
33 79 49 70 67 -24 53z"/>
<path d="M2676 2041 c-4 -6 -13 -8 -20 -5 -15 6 -29 -35 -20 -59 8 -23 50 -40
79 -33 27 7 75 48 75 63 0 5 -8 9 -17 10 -31 2 -65 12 -78 23 -9 7 -15 8 -19
1z"/>
<path d="M900 2023 c0 -14 39 -48 77 -67 40 -20 131 -31 162 -19 l23 9 -23 15
c-73 46 -239 89 -239 62z"/>
<path d="M1394 2012 c-55 -19 -134 -76 -134 -96 0 -39 86 -49 155 -17 39 18
125 101 125 121 0 16 -90 11 -146 -8z"/>
<path d="M1570 2013 c1 -27 58 -64 134 -88 32 -10 35 -13 16 -14 -14 0 -36 6
-50 14 -14 8 -29 14 -35 14 -5 0 6 -8 25 -19 37 -20 68 -24 119 -14 l32 7 -61
37 c-33 20 -57 40 -52 45 4 5 2 5 -4 2 -6 -3 -28 0 -50 8 -44 16 -74 19 -74 8z"/>
<path d="M2990 1974 c-19 -8 -48 -25 -65 -38 -52 -40 -92 -56 -140 -56 -28 0
-44 -4 -40 -10 3 -5 24 -10 45 -10 68 0 144 -37 213 -105 68 -67 159 -112 204
-100 34 8 28 27 -24 74 -57 52 -104 73 -158 73 -25 0 -67 13 -114 35 -88 42
-84 48 43 70 74 13 166 55 166 76 0 13 -94 7 -130 -9z"/>
<path d="M3533 1916 c41 -49 99 -90 148 -105 46 -14 132 -14 127 -1 -1 5 -30
30 -63 55 -61 46 -114 68 -198 84 l-48 9 34 -42z"/>
<path d="M1195 1922 c-6 -5 -37 -15 -70 -22 -33 -7 -73 -19 -90 -27 -32 -16
-105 -82 -105 -95 0 -4 23 -8 50 -8 78 0 166 53 209 125 21 36 22 41 6 27z"/>
<path d="M3040 1908 c-14 -7 -27 -13 -29 -15 -2 -2 4 -12 14 -22 34 -39 161
-39 207 -1 l23 18 -30 12 c-43 18 -155 22 -185 8z"/>
<path d="M1501 1887 c-19 -7 -36 -17 -38 -23 -10 -30 139 -50 186 -24 28 14
27 46 -1 54 -36 9 -110 6 -147 -7z"/>
<path d="M1855 1883 c-3 -10 10 -13 48 -13 78 0 93 17 19 22 -43 2 -63 -1 -67
-9z"/>
<path d="M3350 1893 c0 -21 54 -84 96 -111 48 -32 111 -58 120 -49 19 19 -73
119 -130 142 -45 18 -86 27 -86 18z"/>
<path d="M2615 1871 c-17 -4 -40 -13 -50 -20 -20 -12 -20 -12 0 -6 11 4 50 9
88 12 37 3 67 10 67 14 0 11 -62 10 -105 0z"/>
<path d="M3283 1809 c6 -88 21 -139 47 -171 30 -35 42 -9 36 76 -4 52 -12 80
-33 114 -45 73 -57 68 -50 -19z"/>
<path d="M1775 1846 c-66 -32 -53 -33 16 -2 30 14 50 25 44 25 -5 1 -32 -10
-60 -23z"/>
<path d="M1370 1831 c-28 -40 -50 -106 -50 -150 1 -121 51 -105 86 28 16 64
13 151 -6 151 -5 0 -18 -13 -30 -29z"/>
<path d="M1295 1836 c-16 -7 -45 -25 -63 -41 -32 -27 -68 -82 -59 -92 11 -11
108 50 141 88 51 60 46 73 -19 45z"/>
<path d="M2736 1787 c17 -70 48 -129 92 -171 36 -34 52 -28 52 20 0 71 -55
161 -120 194 l-38 19 14 -62z"/>
<path d="M1904 1795 c-50 -52 -81 -138 -67 -181 l9 -27 29 30 c35 35 67 97 89
171 14 48 14 52 -1 52 -9 0 -36 -20 -59 -45z"/>
<path d="M2520 1829 c0 -5 5 -7 10 -4 6 3 10 8 10 11 0 2 -4 4 -10 4 -5 0 -10
-5 -10 -11z"/>
<path d="M1614 1784 c-55 -26 -139 -108 -129 -124 11 -17 50 -11 105 18 57 29
125 101 102 109 -6 3 -10 9 -6 14 9 16 -19 9 -72 -17z"/>
<path d="M1783 1777 c-29 -31 -66 -104 -79 -157 -10 -39 -12 -41 -13 -15 -1
34 22 104 46 141 8 13 13 27 10 30 -7 7 -53 -55 -67 -91 -13 -34 -17 -129 -6
-162 16 -52 36 -20 97 153 22 63 39 117 37 120 -3 2 -14 -6 -25 -19z"/>
<path d="M2920 1729 c0 -53 6 -77 30 -126 17 -33 39 -68 50 -78 19 -18 20 -17
20 7 0 65 -23 143 -61 201 l-39 62 0 -66z"/>
<path d="M945 830 c-148 -57 -245 -235 -216 -395 23 -122 91 -214 199 -267 60
-30 75 -33 157 -33 82 0 97 3 157 33 126 62 191 169 192 317 1 93 -18 154 -72
229 -39 54 -116 108 -177 125 -63 17 -183 13 -240 -9z m186 -131 c52 -16 108
-64 130 -113 24 -53 24 -139 0 -191 -76 -164 -309 -146 -367 28 -40 121 24
250 138 277 48 11 57 11 99 -1z"/>
<path d="M3285 843 c-16 -3 -25 -20 -39 -71 -44 -153 -117 -372 -125 -372 -12
0 -129 319 -157 428 -2 8 -29 12 -89 12 -47 0 -85 -1 -85 -3 0 -3 110 -290
240 -624 l31 -83 64 0 63 0 21 58 c140 381 229 647 218 654 -12 8 -105 9 -142
1z"/>
<path d="M3533 843 c-10 -3 -13 -82 -13 -343 0 -186 3 -345 6 -354 5 -14 32
-16 200 -16 l194 0 0 75 0 75 -115 0 c-130 0 -130 0 -123 91 l3 44 112 3 112
3 6 32 c4 18 5 51 3 72 l-3 40 -115 5 -115 5 0 60 0 60 118 3 118 3 -3 72 -3
72 -185 2 c-102 1 -191 -1 -197 -4z"/>
<path d="M1543 718 c4 -66 7 -224 7 -350 l0 -228 190 0 190 0 0 70 0 69 -112
3 -113 3 -3 278 -2 277 -82 0 -81 0 6 -122z"/>
<path d="M2030 511 c0 -192 4 -341 10 -356 l10 -25 187 2 188 3 3 72 3 72
-118 3 -118 3 -3 278 -2 277 -80 0 -80 0 0 -329z"/>
<path d="M2542 488 l3 -353 75 0 75 0 3 353 2 352 -80 0 -80 0 2 -352z"/>
</g>
</svg>
