<svg width="51" height="40" viewBox="0 0 51 40" fill="none" xmlns="http://www.w3.org/2000/svg">
<path d="M50.4265 17.8607L37.8442 0.530134C37.6027 0.197342 37.2124 0 36.7973 0H30.4323C29.8293 0 29.3066 0.412439 29.1758 0.992797C28.8777 2.31128 27.2263 3.3056 25.3339 3.3056C23.4416 3.3056 21.7897 2.31128 21.492 0.992797C21.3607 0.412439 20.8386 0 20.2356 0H13.8695C13.4539 0 13.0641 0.197342 12.8226 0.530134L0.240283 17.8607C0.00856375 18.1798 -0.0599224 18.5861 0.0538775 18.9621C0.167677 19.338 0.451919 19.6403 0.823185 19.7819L11.1687 23.7201C11.2258 23.7419 11.2845 23.7596 11.3432 23.7728L10.3479 38.648C10.3247 38.9981 10.4493 39.342 10.6924 39.5982C10.9354 39.8544 11.2763 40 11.6321 40H39.0337C39.0373 40 39.0409 40 39.044 40C39.7551 40 40.3313 39.4323 40.3313 38.7317C40.3313 38.648 40.3231 38.5664 40.3076 38.4877L39.3231 23.7733C39.3823 23.7601 39.4405 23.7424 39.4976 23.7206L49.8431 19.7824C50.2144 19.6408 50.4986 19.3385 50.6124 18.9626C50.7267 18.5861 50.6583 18.1798 50.4265 17.8607ZM40.0162 20.8031L38.6223 13.4314C38.4976 12.7714 37.8725 12.3219 37.1964 12.4056C36.5203 12.4893 36.0275 13.0778 36.0723 13.7475L37.6593 37.463H13.0075L14.5945 13.7475C14.6393 13.0778 14.1465 12.4893 13.4704 12.4056C12.7928 12.3235 12.1692 12.7719 12.0446 13.4314L10.6507 20.8031L3.30052 18.0053L14.5312 2.53602H19.3288C20.2897 4.5003 22.6455 5.84162 25.3334 5.84162C28.0214 5.84162 30.3772 4.4998 31.338 2.53602H36.1356L47.3663 18.0053L40.0162 20.8031Z" fill="black"/>
</svg>
