<svg width="38" height="40" viewBox="0 0 38 40" fill="none" xmlns="http://www.w3.org/2000/svg">
<path d="M14.6956 19.8364C14.6941 20.6153 14.9246 21.377 15.3579 22.0252C15.7912 22.6734 16.4078 23.1789 17.1296 23.4776C17.8514 23.7763 18.6459 23.8549 19.4126 23.7033C20.1792 23.5517 20.8835 23.1768 21.4361 22.6261C21.9888 22.0754 22.365 21.3736 22.5171 20.6096C22.6692 19.8457 22.5904 19.054 22.2906 18.3347C21.9908 17.6154 21.4836 17.001 20.8331 16.5692C20.1826 16.1374 19.4182 15.9077 18.6366 15.9092C17.592 15.9111 16.5907 16.3255 15.8521 17.0616C15.1134 17.7977 14.6975 18.7955 14.6956 19.8364ZM21.0952 19.8364C21.0966 20.3213 20.9537 20.7957 20.6844 21.1995C20.4152 21.6034 20.0317 21.9186 19.5826 22.1051C19.1335 22.2917 18.639 22.3413 18.1616 22.2476C17.6842 22.1539 17.2454 21.9211 16.9009 21.5788C16.5563 21.2365 16.3214 20.8 16.2259 20.3245C16.1305 19.8491 16.1787 19.3561 16.3646 18.908C16.5504 18.46 16.8655 18.0769 17.27 17.8074C17.6744 17.5378 18.1501 17.394 18.6366 17.394C19.2874 17.394 19.9116 17.6511 20.3724 18.1089C20.8333 18.5667 21.0932 19.188 21.0952 19.8364Z" fill="black"/>
<path d="M8.59378 20.4528C9.37504 20.4543 10.1392 20.2248 10.7895 19.7933C11.4398 19.3619 11.9471 18.7479 12.2471 18.029C12.547 17.3102 12.6263 16.5188 12.4748 15.7551C12.3233 14.9914 11.9478 14.2896 11.3959 13.7386C10.844 13.1875 10.1404 12.8121 9.3743 12.6596C8.60816 12.5072 7.81386 12.5847 7.09193 12.8823C6.36999 13.1799 5.75288 13.6842 5.31868 14.3314C4.88448 14.9786 4.65271 15.7396 4.65271 16.5182C4.65271 17.5604 5.06769 18.5601 5.80657 19.2978C6.54545 20.0355 7.54786 20.4509 8.59378 20.4528ZM8.59378 14.0757C9.08066 14.0742 9.55702 14.2168 9.96246 14.4855C10.3679 14.7541 10.6842 15.1367 10.8712 15.5846C11.0582 16.0326 11.1075 16.5258 11.0129 17.0017C10.9182 17.4776 10.6839 17.9148 10.3397 18.2579C9.99538 18.601 9.55663 18.8345 9.07903 18.9287C8.60143 19.023 8.10649 18.9739 7.65695 18.7876C7.20742 18.6012 6.82353 18.286 6.55395 17.882C6.28437 17.478 6.14125 17.0033 6.14272 16.5182C6.14075 16.1962 6.2027 15.877 6.325 15.5789C6.4473 15.2809 6.62753 15.0098 6.85533 14.7815C7.08313 14.5531 7.354 14.3719 7.65235 14.2482C7.9507 14.1245 8.27065 14.0608 8.59378 14.0608V14.0757Z" fill="black"/>
<path d="M28.6867 12.5757C27.9051 12.5742 27.1407 12.8039 26.4902 13.2357C25.8397 13.6675 25.3325 14.2819 25.0327 15.0012C24.7329 15.7205 24.6541 16.5122 24.8062 17.2762C24.9583 18.0401 25.3346 18.7419 25.8872 19.2926C26.4399 19.8433 27.1441 20.2182 27.9107 20.3698C28.6774 20.5214 29.4719 20.4428 30.1937 20.1441C30.9155 19.8454 31.5321 19.3399 31.9654 18.6917C32.3987 18.0435 32.6292 17.2818 32.6278 16.5029C32.6258 15.462 32.2099 14.4642 31.4713 13.7281C30.7326 12.992 29.7313 12.5777 28.6867 12.5757ZM28.6867 18.9528C28.2001 18.9543 27.7241 18.8119 27.3188 18.5436C26.9135 18.2753 26.5972 17.8932 26.41 17.4456C26.2228 16.9981 26.173 16.5053 26.2671 16.0296C26.3611 15.5538 26.5946 15.1166 26.9382 14.7732C27.2817 14.4299 27.7197 14.1958 28.1969 14.1007C28.674 14.0055 29.1687 14.0536 29.6183 14.2388C30.068 14.424 30.4524 14.738 30.7229 15.1411C30.9934 15.5441 31.1377 16.0181 31.1377 16.5029C31.1407 16.8256 31.0795 17.1456 30.9576 17.4445C30.8358 17.7434 30.6557 18.0153 30.4278 18.2444C30.1999 18.4736 29.9287 18.6555 29.6299 18.7796C29.331 18.9038 29.0105 18.9677 28.6867 18.9677V18.9528Z" fill="black"/>
<path d="M37.1201 33.5633L36.5166 31.9226C35.3693 28.7897 33.6335 24.0532 33.5366 23.7563C33.4243 23.1192 33.09 22.542 32.5926 22.1264C32.0951 21.7109 31.4665 21.4836 30.8173 21.4846H26.5336C25.8976 21.4917 25.2836 21.7171 24.795 22.1228C24.3064 22.5285 23.9732 23.0897 23.8515 23.7117C23.7845 23.9196 23.4492 24.8402 23.0469 25.9389C22.7952 25.5805 22.4609 25.2876 22.0719 25.0848C21.683 24.882 21.2509 24.7752 20.8119 24.7734H16.4983C16.0594 24.7796 15.6282 24.8891 15.2398 25.093C14.8514 25.2968 14.5168 25.5892 14.2633 25.9463C13.7865 24.6397 13.5183 23.8454 13.4811 23.7192C13.3603 23.0851 13.0194 22.5136 12.5181 22.105C12.0168 21.6964 11.3871 21.4768 10.7395 21.4846H6.44823C5.80716 21.4848 5.18611 21.7071 4.6914 22.1134C4.1967 22.5197 3.8591 23.0847 3.73642 23.7117C3.66192 23.9567 3.17021 25.3079 2.64871 26.7333L1.60571 29.5841L0.957551 31.3658L0.152946 33.5558C0.0222156 33.8896 -0.0257641 34.2499 0.0130796 34.6062C0.0519232 34.9624 0.176443 35.304 0.37607 35.602C0.575696 35.9001 0.844536 36.1457 1.15977 36.3181C1.475 36.4904 1.82731 36.5845 2.18681 36.5922L4.42182 36.6887H10.2478L10.1807 36.8743C10.05 37.2081 10.002 37.5684 10.0408 37.9246C10.0797 38.2809 10.2042 38.6225 10.4038 38.9205C10.6035 39.2185 10.8723 39.4642 11.1875 39.6366C11.5028 39.8089 11.8551 39.903 12.2146 39.9107L14.4496 39.9998H22.816L25.051 39.9107C25.4105 39.903 25.7628 39.8089 26.078 39.6366C26.3933 39.4642 26.6621 39.2185 26.8617 38.9205C27.0614 38.6225 27.1859 38.2809 27.2247 37.9246C27.2636 37.5684 27.2156 37.2081 27.0849 36.8743L27.0178 36.6887H32.881L35.116 36.5922C35.4746 36.5841 35.8259 36.49 36.1403 36.318C36.4548 36.1461 36.723 35.9012 36.9225 35.6042C37.1219 35.3071 37.2467 34.9666 37.2863 34.6114C37.3259 34.2562 37.2791 33.8967 37.1499 33.5633H37.1201ZM2.24641 35.1074C2.12429 35.1048 2.0047 35.0723 1.89817 35.0127C1.79164 34.9531 1.70144 34.8684 1.63551 34.7659C1.56994 34.6704 1.52771 34.5609 1.51219 34.4461C1.49666 34.3314 1.50828 34.2147 1.5461 34.1052L2.35071 31.878C2.56676 31.299 2.79026 30.6976 3.00631 30.0963L4.04932 27.2455C5.18173 24.1275 5.18173 24.1126 5.20408 23.9864C5.25836 23.6982 5.41284 23.4382 5.64038 23.2522C5.86791 23.0662 6.15395 22.9661 6.44823 22.9694H10.7395C11.0294 22.9686 11.3111 23.0658 11.5384 23.2451C11.7657 23.4245 11.9253 23.6753 11.9911 23.9567C11.9911 24.0755 11.9911 24.2017 13.4289 28.0622C13.3395 28.2997 13.2427 28.5596 13.1384 28.8565L11.6484 32.9248L11.4174 33.5633C11.261 34.0013 11.1045 34.4096 10.9555 34.8253L10.8065 35.2188H4.48142L2.24641 35.1074ZM25.5949 38.077C25.5267 38.1773 25.4359 38.2604 25.3299 38.3197C25.2239 38.379 25.1054 38.4128 24.9839 38.4185L22.7489 38.5076H14.5166L12.2816 38.4185C12.1588 38.415 12.0388 38.3814 11.9322 38.3205C11.8256 38.2596 11.7358 38.1734 11.6707 38.0696C11.6003 37.969 11.556 37.8527 11.5417 37.7309C11.5274 37.6092 11.5435 37.4858 11.5888 37.3717L11.6633 37.1564C11.7229 37.0154 11.775 36.8743 11.8197 36.7407C11.8644 36.6071 11.9464 36.3918 12.0209 36.1988C12.2742 35.5232 12.5349 34.7956 12.8106 34.0532L13.0415 33.4074C13.7865 31.4029 14.5315 29.3985 14.9115 28.2997V28.2329C15.0828 27.7207 15.1946 27.4089 15.2169 27.3123C15.2678 27.018 15.4211 26.7509 15.6501 26.5581C15.879 26.3653 16.1688 26.2591 16.4685 26.2581H20.7523C21.061 26.262 21.3582 26.3756 21.5904 26.5784C21.8226 26.7811 21.9745 27.0598 22.0188 27.3643C22.0188 27.3643 22.1306 27.7132 22.3317 28.27C22.8309 29.6731 23.9111 32.6204 24.82 35.1223L25.2149 36.1913L25.6396 37.3643C25.6942 37.4782 25.7187 37.6041 25.7109 37.7301C25.7031 37.8562 25.6631 37.9781 25.5949 38.0844V38.077ZM35.6375 34.7585C35.5716 34.861 35.4814 34.9457 35.3748 35.0053C35.2683 35.0648 35.1487 35.0974 35.0266 35.1L32.8437 35.1965H26.4665L26.2505 34.61C25.9748 33.8677 25.6768 33.051 25.3937 32.2567C24.7902 30.616 24.2166 29.0421 23.8515 28.0176C25.2074 24.3057 25.267 24.1275 25.2968 23.9864C25.3509 23.6995 25.5043 23.4405 25.7303 23.2546C25.9563 23.0688 26.2405 22.9678 26.5336 22.9694H30.8173C31.1097 22.9713 31.3923 23.0746 31.6166 23.2616C31.8409 23.4485 31.993 23.7074 32.0466 23.9939C32.0466 24.1423 32.1956 24.521 35.0937 32.4348L35.6897 34.0755C35.7379 34.1862 35.7584 34.3069 35.7493 34.4272C35.7402 34.5475 35.7018 34.6637 35.6375 34.7659V34.7585Z" fill="black"/>
<path d="M7.08142 7.23831C7.16278 7.28521 7.2238 7.3605 7.25269 7.44963C7.28159 7.53875 7.27631 7.63539 7.23787 7.72086L6.17251 10.2598C6.11069 10.4148 6.10305 10.5861 6.15081 10.7459C6.19858 10.9058 6.29897 11.0449 6.43581 11.141C6.57264 11.237 6.73795 11.2844 6.90508 11.2754C7.07221 11.2663 7.23143 11.2015 7.35707 11.0913L9.92734 8.81218C10.0724 8.68081 10.2465 8.58544 10.4355 8.53383C10.6245 8.48223 10.8231 8.47585 11.015 8.51522C12.681 8.85142 14.3691 9.06727 16.0662 9.1611L17.9734 12.925C18.0373 13.0447 18.1329 13.1446 18.2498 13.214C18.3667 13.2833 18.5004 13.3195 18.6364 13.3185C18.7764 13.316 18.9128 13.2743 19.0301 13.1982C19.1474 13.122 19.2407 13.0145 19.2995 12.8879L21.0428 9.17595C22.7951 9.08888 24.5384 8.87049 26.2578 8.52264C26.4498 8.48327 26.6484 8.48965 26.8374 8.54125C27.0264 8.59286 27.2005 8.68823 27.3455 8.8196L29.9158 11.0913C30.0417 11.2037 30.2022 11.27 30.3709 11.2795C30.5397 11.2889 30.7066 11.2409 30.8444 11.1434C30.9821 11.0458 31.0825 10.9045 31.129 10.7426C31.1755 10.5807 31.1654 10.4078 31.1004 10.2524L30.035 7.72086C29.9966 7.63539 29.9913 7.53875 30.0202 7.44963C30.0491 7.3605 30.1101 7.28521 30.1915 7.23831C31.6293 6.49592 32.3669 5.6199 32.3669 4.62509C32.3669 1.58872 25.4607 0 18.6364 0C11.8122 0 4.90601 1.58872 4.90601 4.62509C4.90601 5.6199 5.64356 6.49592 7.08142 7.23831ZM18.6364 1.48478C26.0865 1.48478 30.8769 3.34818 30.8769 4.62509C30.8769 4.99629 30.3628 5.47884 29.5061 5.91685C29.156 6.10142 28.874 6.39239 28.7012 6.74751C28.5284 7.10262 28.4737 7.50339 28.545 7.89161L28.3215 7.70601C28.0013 7.42226 27.6191 7.21681 27.2052 7.10598C26.7914 6.99516 26.3573 6.982 25.9375 7.06756C24.1531 7.43144 22.3415 7.64747 20.5213 7.71344C20.3852 7.71996 20.2535 7.76356 20.1405 7.83947C20.0276 7.91539 19.9377 8.02073 19.8806 8.14402L18.6364 10.8983L17.1986 8.12175C17.1397 8.00476 17.0507 7.90536 16.9408 7.83366C16.8309 7.76195 16.704 7.72047 16.5728 7.71344C14.8204 7.63638 13.0767 7.42291 11.3577 7.07498C11.1762 7.03896 10.9915 7.02155 10.8064 7.02301C10.1319 7.02514 9.48096 7.27038 8.97373 7.71344L8.76513 7.89903C8.84023 7.50219 8.78338 7.09176 8.60322 6.73002C8.42306 6.36828 8.12941 6.07497 7.76682 5.89458C6.91007 5.45657 6.39602 4.97402 6.39602 4.60282C6.39602 3.34818 11.1864 1.48478 18.6364 1.48478Z" fill="black"/>
<path d="M13.1831 5.79826H13.9281C14.1257 5.79826 14.3152 5.72004 14.4549 5.58082C14.5946 5.44159 14.6731 5.25276 14.6731 5.05587C14.6731 4.85897 14.5946 4.67014 14.4549 4.53092C14.3152 4.39169 14.1257 4.31348 13.9281 4.31348H13.1831C12.9855 4.31348 12.796 4.39169 12.6563 4.53092C12.5166 4.67014 12.4381 4.85897 12.4381 5.05587C12.4381 5.25276 12.5166 5.44159 12.6563 5.58082C12.796 5.72004 12.9855 5.79826 13.1831 5.79826Z" fill="black"/>
<path d="M16.5654 5.79826H17.3104C17.508 5.79826 17.6975 5.72004 17.8372 5.58082C17.977 5.44159 18.0554 5.25276 18.0554 5.05587C18.0554 4.85897 17.977 4.67014 17.8372 4.53092C17.6975 4.39169 17.508 4.31348 17.3104 4.31348H16.5654C16.3679 4.31348 16.1784 4.39169 16.0386 4.53092C15.8989 4.67014 15.8204 4.85897 15.8204 5.05587C15.8204 5.25276 15.8989 5.44159 16.0386 5.58082C16.1784 5.72004 16.3679 5.79826 16.5654 5.79826Z" fill="black"/>
<path d="M19.9403 5.79826H20.6853C20.8829 5.79826 21.0724 5.72004 21.2121 5.58082C21.3518 5.44159 21.4303 5.25276 21.4303 5.05587C21.4303 4.85897 21.3518 4.67014 21.2121 4.53092C21.0724 4.39169 20.8829 4.31348 20.6853 4.31348H19.9403C19.7427 4.31348 19.5532 4.39169 19.4135 4.53092C19.2738 4.67014 19.1953 4.85897 19.1953 5.05587C19.1953 5.25276 19.2738 5.44159 19.4135 5.58082C19.5532 5.72004 19.7427 5.79826 19.9403 5.79826Z" fill="black"/>
<path d="M23.3151 5.79826H24.0601C24.2577 5.79826 24.4472 5.72004 24.5869 5.58082C24.7266 5.44159 24.8051 5.25276 24.8051 5.05587C24.8051 4.85897 24.7266 4.67014 24.5869 4.53092C24.4472 4.39169 24.2577 4.31348 24.0601 4.31348H23.3151C23.1175 4.31348 22.928 4.39169 22.7883 4.53092C22.6486 4.67014 22.5701 4.85897 22.5701 5.05587C22.5701 5.25276 22.6486 5.44159 22.7883 5.58082C22.928 5.72004 23.1175 5.79826 23.3151 5.79826Z" fill="black"/>
</svg>
