<svg width="40" height="40" viewBox="0 0 40 40" fill="none" xmlns="http://www.w3.org/2000/svg">
<path d="M37.4468 0H4.04255C2.97075 0.00112644 1.94316 0.427399 1.18528 1.18528C0.427399 1.94316 0.00112644 2.97075 0 4.04255V35.9574C0.00112644 37.0293 0.427399 38.0568 1.18528 38.8147C1.94316 39.5726 2.97075 39.9989 4.04255 40H37.4468C38.124 40 38.7734 39.731 39.2522 39.2522C39.731 38.7734 40 38.124 40 37.4468V2.55319C40 1.87604 39.731 1.22663 39.2522 0.747813C38.7734 0.268996 38.124 0 37.4468 0ZM38.2979 2.55319V31.9149H8.08511V1.70213H37.4468C37.6725 1.70213 37.889 1.79179 38.0486 1.9514C38.2082 2.111 38.2979 2.32748 38.2979 2.55319ZM4.04255 1.70213H6.38298V31.9149H4.04255C3.20278 31.9146 2.38411 32.1781 1.70213 32.6681V4.04255C1.70325 3.42218 1.95019 2.82754 2.38886 2.38886C2.82754 1.95019 3.42218 1.70325 4.04255 1.70213ZM37.4468 38.2979H4.04255C3.42183 38.2979 2.82654 38.0513 2.38762 37.6124C1.94871 37.1735 1.70213 36.5782 1.70213 35.9574C1.70213 35.3367 1.94871 34.7414 2.38762 34.3025C2.82654 33.8636 3.42183 33.617 4.04255 33.617H38.2979V34.8936H24.2553C24.0296 34.8936 23.8131 34.9833 23.6535 35.1429C23.4939 35.3025 23.4043 35.519 23.4043 35.7447C23.4043 35.9704 23.4939 36.1869 23.6535 36.3465C23.8131 36.5061 24.0296 36.5957 24.2553 36.5957H38.2979V37.4468C38.2979 37.6725 38.2082 37.889 38.0486 38.0486C37.889 38.2082 37.6725 38.2979 37.4468 38.2979Z" fill="black"/>
<path d="M13.6169 29.3623H32.7659C32.9916 29.3623 33.2081 29.2726 33.3677 29.113C33.5273 28.9534 33.6169 28.7369 33.6169 28.5112C33.6169 28.2855 33.5273 28.069 33.3677 27.9094C33.2081 27.7498 32.9916 27.6602 32.7659 27.6602H13.6169C13.3912 27.6602 13.1747 27.7498 13.0151 27.9094C12.8555 28.069 12.7659 28.2855 12.7659 28.5112C12.7659 28.7369 12.8555 28.9534 13.0151 29.113C13.1747 29.2726 13.3912 29.3623 13.6169 29.3623Z" fill="black"/>
<path d="M16.8084 16.5957H17.0212V24.2553C17.0212 24.481 17.1109 24.6975 17.2705 24.8571C17.4301 25.0167 17.6465 25.1064 17.8723 25.1064H28.5106C28.7363 25.1064 28.9527 25.0167 29.1123 24.8571C29.2719 24.6975 29.3616 24.481 29.3616 24.2553V16.5957H29.5744C30.6465 16.5957 31.6748 16.1698 32.4329 15.4117C33.191 14.6536 33.6169 13.6253 33.6169 12.5532C33.6169 11.481 33.191 10.4528 32.4329 9.69467C31.6748 8.93655 30.6465 8.51064 29.5744 8.51064C29.4036 8.51138 29.2331 8.52275 29.0637 8.54468C28.6653 7.30023 27.8819 6.21453 26.8264 5.44421C25.771 4.67389 24.4981 4.25879 23.1914 4.25879C21.8847 4.25879 20.6118 4.67389 19.5564 5.44421C18.5009 6.21453 17.7175 7.30023 17.3191 8.54468C17.1497 8.52275 16.9792 8.51138 16.8084 8.51064C15.7363 8.51064 14.708 8.93655 13.9499 9.69467C13.1918 10.4528 12.7659 11.481 12.7659 12.5532C12.7659 13.6253 13.1918 14.6536 13.9499 15.4117C14.708 16.1698 15.7363 16.5957 16.8084 16.5957ZM16.8084 10.2128C17.0996 10.2104 17.3884 10.2639 17.6595 10.3702C17.7776 10.4149 17.9042 10.4327 18.03 10.4224C18.1559 10.4121 18.2779 10.3739 18.3871 10.3106C18.4984 10.2488 18.5944 10.1628 18.6681 10.059C18.7417 9.95514 18.7911 9.83611 18.8127 9.71064C18.9793 8.66242 19.5144 7.70801 20.3217 7.01893C21.129 6.32986 22.1555 5.95131 23.2169 5.95131C24.2783 5.95131 25.3049 6.32986 26.1122 7.01893C26.9195 7.70801 27.4545 8.66242 27.6212 9.71064C27.6427 9.83611 27.6921 9.95514 27.7658 10.059C27.8394 10.1628 27.9354 10.2488 28.0467 10.3106C28.156 10.3739 28.278 10.4121 28.4038 10.4224C28.5297 10.4327 28.6563 10.4149 28.7744 10.3702C29.0454 10.2639 29.3343 10.2104 29.6254 10.2128C29.9669 10.2116 30.3045 10.2852 30.6145 10.4283C30.9245 10.5715 31.1995 10.7808 31.42 11.0414C31.6406 11.3021 31.8014 11.6079 31.8913 11.9373C31.9812 12.2668 31.9978 12.6119 31.9402 12.9484C31.8825 13.285 31.7519 13.6049 31.5575 13.8856C31.3631 14.1663 31.1096 14.4011 30.8148 14.5735C30.52 14.7459 30.1911 14.8517 29.8511 14.8834C29.5111 14.9152 29.1683 14.8722 28.8467 14.7574C28.7158 14.7011 28.5729 14.6786 28.4311 14.6919C28.2892 14.7051 28.1529 14.7538 28.0348 14.8334C27.9166 14.9131 27.8203 15.0211 27.7548 15.1476C27.6892 15.2741 27.6564 15.415 27.6595 15.5574V23.4043H18.7233V15.5574C18.723 15.4213 18.6901 15.2873 18.6272 15.1665C18.5644 15.0458 18.4735 14.9418 18.3622 14.8635C18.2509 14.7851 18.1225 14.7346 17.9876 14.7161C17.8527 14.6977 17.7154 14.7118 17.5871 14.7574C17.2655 14.8722 16.9227 14.9152 16.5827 14.8834C16.2427 14.8517 15.9138 14.7459 15.6191 14.5735C15.3243 14.4011 15.0708 14.1663 14.8764 13.8856C14.682 13.6049 14.5514 13.285 14.4937 12.9484C14.436 12.6119 14.4527 12.2668 14.5426 11.9373C14.6324 11.6079 14.7933 11.3021 15.0138 11.0414C15.2344 10.7808 15.5093 10.5715 15.8194 10.4283C16.1294 10.2852 16.467 10.2116 16.8084 10.2128Z" fill="black"/>
</svg>
