<svg width="34" height="40" viewBox="0 0 34 40" fill="none" xmlns="http://www.w3.org/2000/svg">
<path d="M16.5351 0C11.2889 0 7.01327 4.31368 7.01327 9.60598C7.01327 14.8983 11.2889 19.1984 16.5351 19.1984C21.7814 19.1984 26.057 14.8983 26.057 9.60598C26.057 4.31368 21.7814 0 16.5351 0ZM16.5351 1.73913C20.849 1.73913 24.3306 5.25421 24.3306 9.60598C24.3306 13.9577 20.849 17.4592 16.5351 17.4592C12.2212 17.4592 8.7531 13.9577 8.7531 9.60598C8.7531 5.25421 12.2212 1.73913 16.5351 1.73913ZM14.1479 21.1413C6.33106 21.1413 0 27.4245 0 35.2174V39.1304C2.28772e-05 39.361 0.0909712 39.5822 0.252842 39.7453C0.414713 39.9084 0.634251 40 0.863171 40H32.2071C32.436 40 32.6555 39.9084 32.8174 39.7453C32.9793 39.5822 33.0702 39.361 33.0703 39.1304V35.2174C33.0703 27.4245 26.7392 21.1413 18.9223 21.1413H14.1479ZM14.1479 22.8804H18.9223C25.8234 22.8804 31.3439 28.3705 31.3439 35.2174V38.2609H1.72634V35.2174C1.72634 28.3705 7.24685 22.8804 14.1479 22.8804Z" fill="black"/>
</svg>
